<svg width="48" height="41" viewBox="0 0 48 41" fill="none" xmlns="http://www.w3.org/2000/svg">
<path fill-rule="evenodd" clip-rule="evenodd" d="M2 0V31C2 35.4183 5.58172 39 10 39H48" fill="white"/>
<path d="M3.5 0V31C3.5 34.5118 6.285 37.3731 9.76687 37.4959L10 37.5H48V40.5H10C4.84376 40.5 0.646961 36.3921 0.503776 31.2705L0.5 31V0H3.5Z" fill="#3B3A40"/>
<path d="M44.78 3.19L47.305 4.81001L33.884 25.7284C33.4022 26.4793 32.3854 26.6386 31.6993 26.1016L31.5881 26.0057L22.123 17.01L13.2778 29.851L10.8073 28.149L20.6494 13.8633C21.1433 13.1464 22.1318 13.0065 22.803 13.5281L22.918 13.627L32.339 22.581L44.78 3.19Z" fill="#3B3A40"/>
</svg>
