<svg width="50" height="50" viewBox="0 0 50 50" fill="none" xmlns="http://www.w3.org/2000/svg">
<path fill-rule="evenodd" clip-rule="evenodd" d="M7.30454 19.6123C3.20315 30.4428 8.67167 42.6402 19.6087 46.6359C30.5458 50.6316 42.6396 45.1638 46.6358 34.3333C50.6321 23.5029 45.1635 11.3054 34.3317 7.3097C32.018 6.36335 29.4941 5.94275 26.9702 5.94275C25.9991 5.94275 24.9749 6.04886 23.973 6.2234C23.5645 6.29457 23.973 24.9999 23.973 24.9999L7.30454 19.6123Z" fill="white"/>
<path d="M26.9702 4.44275C29.7807 4.44275 32.4764 4.9302 34.8508 5.9024C46.4289 10.1734 52.3378 23.2132 48.0431 34.8526C43.7648 46.4476 30.8186 52.3283 19.094 48.0449C7.52196 43.8172 1.61093 30.9857 5.77256 19.4308L5.90175 19.0811L8.70732 20.1435C4.8875 30.2305 10.0085 41.5317 20.1234 45.227C30.3043 48.9465 41.5258 43.8492 45.2286 33.8141C48.9527 23.7211 43.8278 12.4115 33.7638 8.69805C31.7165 7.86066 29.4055 7.44275 26.9702 7.44275C26.2702 7.44275 25.5077 7.50486 24.7118 7.62334L24.2305 7.70114L23.7156 4.74565C24.8471 4.54854 25.947 4.44275 26.9702 4.44275Z" fill="#3B3A40"/>
<path fill-rule="evenodd" clip-rule="evenodd" d="M9.18114 5.61438C13.4496 2.30634 18.6741 0.5 24 0.5C24.8284 0.5 25.5 1.17157 25.5 2V25C25.5 25.9891 24.5595 26.7074 23.6053 26.4471L1.60532 20.4471C0.809991 20.2302 0.338754 19.4122 0.550153 18.6153C1.92408 13.4367 4.9893 8.83885 9.18114 5.61438ZM22.5 23.035V3.555L22.1431 3.58381C18.1366 3.94567 14.2641 5.47054 11.0146 7.98894C7.8319 10.4371 5.38827 13.7925 4.00943 17.598L3.883 17.958L22.5 23.035Z" fill="#3B3A40"/>
</svg>
